<?xml version="1.0" standalone="no"?>
<!DOCTYPE svg PUBLIC "-//W3C//DTD SVG 20010904//EN"
 "http://www.w3.org/TR/2001/REC-SVG-20010904/DTD/svg10.dtd">
<svg version="1.0" xmlns="http://www.w3.org/2000/svg"
 width="1001.000000pt" height="1001.000000pt" viewBox="0 0 1001.000000 1001.000000"
 preserveAspectRatio="xMidYMid meet">
<metadata>
Created by potrace 1.11, written by Peter Selinger 2001-2013
</metadata>
<g transform="translate(0.000000,1001.000000) scale(0.100000,-0.100000)"
fill="#000000" stroke="none">
<path d="M4990 9590 l0 -410 -72 -1 c-108 -1 -299 -13 -383 -24 -16 -2 -50 -7
-75 -10 -25 -3 -56 -7 -70 -9 -14 -2 -47 -8 -75 -12 -27 -4 -54 -8 -60 -10
-12 -3 -69 -13 -110 -20 -16 -3 -38 -7 -47 -10 -9 -3 -25 -6 -35 -8 -57 -12
-205 -52 -322 -89 l-134 -41 -26 34 c-119 159 -328 294 -501 324 -19 3 -46 8
-60 11 -32 7 -218 7 -228 1 -5 -3 -26 -7 -48 -10 -162 -21 -362 -137 -487
-285 -135 -158 -206 -372 -194 -581 3 -52 8 -106 11 -119 13 -59 40 -141 63
-193 l25 -56 -99 -99 c-125 -126 -282 -299 -309 -342 -3 -3 -73 47 -84 60 -3
3 -54 44 -115 92 -60 48 -117 93 -125 100 -90 81 -314 248 -325 243 -20 -7
-10 -29 25 -56 63 -48 566 -452 578 -464 11 -11 3 -28 -51 -97 -311 -406 -573
-953 -703 -1469 -30 -120 -27 -105 -58 -275 -33 -176 -34 -185 -51 -350 -30
-298 -22 -716 20 -985 2 -14 7 -45 10 -70 3 -25 13 -76 20 -115 8 -38 17 -83
20 -100 2 -16 16 -75 30 -130 14 -55 28 -111 31 -125 15 -71 129 -393 183
-518 157 -365 380 -734 605 -1001 36 -43 37 -46 19 -58 -10 -8 -31 -25 -48
-38 -30 -25 -214 -169 -315 -248 -204 -160 -250 -199 -250 -212 0 -8 6 -15 14
-15 11 0 88 55 176 127 8 7 87 69 175 138 181 142 174 136 238 188 l47 38 198
-199 c253 -255 431 -402 692 -574 409 -268 861 -462 1335 -573 110 -26 239
-51 306 -60 24 -3 53 -8 64 -9 11 -2 49 -7 85 -11 36 -3 79 -8 95 -10 49 -6
213 -17 305 -19 l85 -2 3 -413 c2 -386 3 -412 20 -409 16 3 17 33 20 414 l2
411 108 2 c59 1 125 4 147 6 22 2 72 6 110 9 238 21 561 83 785 151 47 15 107
33 133 41 183 57 494 193 707 311 442 245 878 606 1191 988 l33 41 261 -208
c143 -115 267 -214 275 -221 46 -38 94 -71 106 -73 35 -5 7 37 -58 88 -64 50
-174 138 -233 186 -11 10 -37 29 -57 44 -20 15 -42 33 -50 40 -7 7 -34 29 -58
48 -54 42 -63 49 -117 93 l-43 35 53 69 c292 381 534 857 668 1311 22 75 46
160 54 187 15 52 58 266 70 345 4 24 8 47 10 50 2 3 6 39 10 79 4 41 8 82 10
92 12 63 19 219 20 444 0 271 -6 377 -31 565 -4 30 -8 60 -8 65 -1 6 -5 30
-10 55 -4 25 -10 59 -12 75 -22 135 -91 405 -149 580 -116 348 -314 742 -523
1044 l-51 73 68 52 c37 28 85 65 107 83 21 18 109 87 194 153 259 203 270 212
270 231 0 31 -37 8 -200 -124 -8 -7 -44 -35 -80 -62 -35 -28 -73 -58 -85 -67
-70 -57 -291 -228 -295 -228 -3 0 -42 46 -85 101 -99 126 -223 264 -372 413
-2 2 6 21 19 43 170 274 158 643 -30 913 -121 174 -329 312 -523 345 -82 15
-94 15 -186 15 -157 -1 -334 -58 -469 -151 -61 -41 -166 -148 -204 -208 l-32
-49 -85 30 c-190 68 -534 158 -663 174 -19 2 -57 8 -85 14 -27 5 -75 12 -105
15 -30 4 -66 8 -80 10 -72 11 -278 24 -387 25 l-43 0 0 410 c0 403 0 410 -20
410 -20 0 -20 -7 -20 -410z"/>
<path d="M445 6308 c-7 -18 -17 -49 -21 -68 -4 -19 -9 -496 -10 -1060 -3 -844
-1 -1038 11 -1097 23 -119 43 -138 88 -83 35 41 135 305 162 427 2 10 16 61
31 113 14 52 28 102 29 110 2 8 8 33 14 55 56 222 59 245 60 450 l0 200 -49
202 c-100 410 -196 700 -252 761 -29 30 -47 28 -63 -10z"/>
<path d="M9524 6332 c-32 -21 -97 -171 -147 -342 -40 -135 -60 -204 -62 -215
-2 -5 -15 -55 -29 -110 -25 -94 -29 -113 -42 -173 -3 -13 -11 -49 -19 -80 -11
-40 -15 -112 -15 -253 0 -209 5 -241 75 -514 126 -485 216 -706 275 -670 13 8
29 68 38 140 10 82 9 2014 -1 2095 -12 100 -39 145 -73 122z"/>
</g>
</svg>
