<svg xmlns="http://www.w3.org/2000/svg" viewBox="0 0 1965.84 999.38"><defs><style>.a,.e{fill:none;stroke-linecap:round;stroke-miterlimit:10;}.a{stroke:#000;stroke-width:4px;}.b{fill:#1cb6b1;}.c{fill:#fff;}.d{fill:#0b6665;}.e{stroke:#231f20;stroke-width:19px;}.f{opacity:0.46;}</style></defs><title>PufferSwimLogo1</title><line class="a" x1="459.88" y1="2" x2="459.88" y2="997.38"/><line class="a" x1="859.63" y1="203.45" x2="77.29" y2="818.86"/><line class="a" x1="69.88" y1="189.01" x2="847.5" y2="810.38"/><circle class="b" cx="458.72" cy="499.54" r="417.12"/><circle class="c" cx="249.14" cy="152.28" r="84.1"/><circle cx="249.14" cy="152.28" r="65.26"/><circle class="c" cx="678.98" cy="152.28" r="84.1"/><circle cx="678.98" cy="152.28" r="65.26"/><polygon class="b" points="39.67 465.11 39.67 504.62 39.66 504.64 0.14 546.02 0.14 508.9 0.14 460.85 0.14 423.71 39.66 465.09 39.67 465.11"/><path class="b" d="M46.2,435.4c-2.87-148.83,39.06,39.27,39.52,41.38Z" transform="translate(-46.06 -11.69)"/><path class="b" d="M85.72,516.32c-.46,2.11-42.39,190.21-39.52,41.38Z" transform="translate(-46.06 -11.69)"/><circle class="c" cx="267.33" cy="121.99" r="24.3"/><circle class="c" cx="706.28" cy="125.41" r="24.3"/><ellipse class="d" cx="470.63" cy="632.29" rx="164.2" ry="208.58"/><polygon class="b" points="880.14 465.11 880.14 504.63 880.15 504.64 919.67 546.02 919.67 508.89 919.67 460.83 919.67 423.72 880.15 465.1 880.14 465.11"/><path class="b" d="M926.21,476.78l39.52-41.38C968.6,286.58,926.67,474.67,926.21,476.78Z" transform="translate(-46.06 -11.69)"/><path class="b" d="M965.73,557.71l-39.52-41.38C926.67,518.44,968.6,706.54,965.73,557.71Z" transform="translate(-46.06 -11.69)"/><path class="e" d="M504.75,304.28A44.26,44.26,0,0,1,460.49,260" transform="translate(-46.06 -11.69)"/><path class="e" d="M549.07,260a44.26,44.26,0,0,1-44.32,44.26" transform="translate(-46.06 -11.69)"/><path class="b" d="M1256.1,223.86v13.8c0,11.4-9.5,16.4-25.2,16.4h-12v30.8H1205v-77.3h25.9C1246.6,207.56,1256.1,212.46,1256.1,223.86Zm-13.9,2c0-6.9-4.2-9.2-11.8-9.2H1219v28.1h11.4c7.7,0,11.8-2.3,11.8-9.1Z" transform="translate(-46.06 -11.69)"/><path class="b" d="M1293.4,206.66h1.2c15.7,0,25.2,5,25.2,16.4v46.4c0,11.4-9.5,16.4-25.2,16.4h-1.2c-15.7,0-25.2-5-25.2-16.4v-46.4C1268.3,211.46,1277.7,206.66,1293.4,206.66Zm.6,69.9c7.7,0,11.8-2.3,11.8-9.2V225c0-6.9-4.2-9.2-11.8-9.2s-11.8,2.3-11.8,9.2v42.4c0,6.9,4.1,9.2,11.8,9.2Z" transform="translate(-46.06 -11.69)"/><path class="b" d="M1402.7,284.86h-13.2l-15-57.5-15.1,57.5h-13.6l-16.7-77.3h13.8l10.5,58.8,14.8-58.8h12.7l15,58.8,10.5-58.8h13Z" transform="translate(-46.06 -11.69)"/><path class="b" d="M1430.1,284.86v-77.3h43.7v9.2H1444v24.3h25.2v9.3H1444v25.4h30.2V285h-44.1Z" transform="translate(-46.06 -11.69)"/><path class="b" d="M1528.2,284.86l-14.4-31.7h-12.2v31.7h-13.9v-77.3h25.9c15.7,0,25.2,5,25.2,16.3v12.9c0,7.7-4.4,12.5-12.2,14.8l15.7,33.3Zm-26.6-40.8h11.5c7.7,0,11.8-2.3,11.8-9.2v-9.1c0-6.9-4.2-9.2-11.8-9.2h-11.4Z" transform="translate(-46.06 -11.69)"/><path class="b" d="M1618.7,284.86l-14.4-31.7h-12.2v31.7h-13.9v-77.3h25.9c15.7,0,25.2,5,25.2,16.3v12.9c0,7.7-4.4,12.5-12.2,14.8l15.7,33.3Zm-26.5-40.8h11.4c7.7,0,11.8-2.3,11.8-9.2v-9.1c0-6.9-4.2-9.2-11.8-9.2h-11.4Z" transform="translate(-46.06 -11.69)"/><path class="b" d="M1668.8,206.66h1.2c15.7,0,25.2,5,25.2,16.4v46.4c0,11.4-9.5,16.4-25.2,16.4h-1.2c-15.7,0-25.2-5-25.2-16.4v-46.4C1643.6,211.46,1653.1,206.66,1668.8,206.66Zm.6,69.9c7.7,0,11.8-2.3,11.8-9.2V225c0-6.9-4.2-9.2-11.8-9.2s-11.8,2.3-11.8,9.2v42.4c-.1,6.9,4.1,9.2,11.8,9.2Z" transform="translate(-46.06 -11.69)"/><path class="b" d="M1744.1,266.56h-22.2l-4.5,18.2h-13.5l20.6-77.3h17.2l20.9,77.3h-14.2Zm-2.2-8.7-8.9-37.3-9,37.3Z" transform="translate(-46.06 -11.69)"/><path class="b" d="M1823.8,223.86v44.6c0,11.4-9.5,16.4-25.2,16.4H1773v-77.3h25.6C1814.3,207.56,1823.8,212.46,1823.8,223.86Zm-25.8-7.2h-11.1v59H1798c7.7,0,11.8-2.3,11.8-9.2v-40.7c.1-6.7-4.1-9.1-11.8-9.1Z" transform="translate(-46.06 -11.69)"/><path class="d" d="M1136.09,499.06v108.3a97.53,97.53,0,0,1-3.08,25.4,78.08,78.08,0,0,1-8.48,20.6,48.22,48.22,0,0,1-12.51,13.8,26.09,26.09,0,0,1-15.38,5.1c-6.79,0-13.36-2.6-19.73-7.7v121.9H1050.4V420.66h26.51V427c6-5.5,12.62-8.2,19.73-8.2a25.82,25.82,0,0,1,15.06,5.1,44.4,44.4,0,0,1,12.51,13.8,76.18,76.18,0,0,1,8.48,20.3,102.78,102.78,0,0,1,3.39,24.7Zm-25.45-17.5c0-6.4-1.38-11.9-4.14-16.4s-5.94-6.8-9.76-6.8-7.85,2.3-11.67,6.8a24.19,24.19,0,0,0-5.73,16.4v124.2q0,9.75,5.73,16.2c3.82,4.3,7.74,6.5,11.67,6.5,3.71,0,7-2.2,9.76-6.5s4.14-9.8,4.14-16.2Z" transform="translate(-46.06 -11.69)"/><path class="d" d="M1253.92,421.16v181.9a115.07,115.07,0,0,1-3.39,28.8,85.09,85.09,0,0,1-9.33,23.2,52.58,52.58,0,0,1-13.79,15.7,27.56,27.56,0,0,1-16.65,5.8,27.06,27.06,0,0,1-16.76-5.8,51.87,51.87,0,0,1-13.57-15.7,88,88,0,0,1-9.12-23.2,114.52,114.52,0,0,1-3.39-28.8V421.16h28.21v179.9c0,7.4,1.48,13.6,4.35,18.6s6.47,7.5,10.61,7.5q6.52,0,10.82-7.5c3-5,4.35-11.2,4.35-18.6V421.16Z" transform="translate(-46.06 -11.69)"/><path class="d" d="M1326.46,432.76h20v40.6h-20v202.7h-27V473.36h-20v-40.6h20v-64.3h.32a114.37,114.37,0,0,1,3.92-26.1,87.85,87.85,0,0,1,8.91-21.3,45.85,45.85,0,0,1,12.83-14.3,25.1,25.1,0,0,1,18.35-4.9c1,.2,1.91.4,2.86.7v44a13.71,13.71,0,0,0-2.65-1.5,8.28,8.28,0,0,0-2.65-.5q-5.89,0-10.18,7.5a35.6,35.6,0,0,0-4.24,17.7v3.4h-.32Z" transform="translate(-46.06 -11.69)"/><path class="d" d="M1423.81,432.76h20v40.6h-20v202.7h-27V473.36h-20.15v-40.6h20v-64.3h.32a114.37,114.37,0,0,1,3.92-26.1,87.85,87.85,0,0,1,8.91-21.3,45.85,45.85,0,0,1,12.83-14.3,25.1,25.1,0,0,1,18.35-4.9c1,.2,1.91.4,2.86.7v44a13.71,13.71,0,0,0-2.65-1.5,8.28,8.28,0,0,0-2.65-.5q-5.89,0-10.18,7.5a35.6,35.6,0,0,0-4.24,17.7v3.4h-.32Z" transform="translate(-46.06 -11.69)"/><path class="d" d="M1547,573.46v35.8a98.5,98.5,0,0,1-3.29,26.1,88.79,88.79,0,0,1-8.48,21,47,47,0,0,1-12.41,14.3,24.26,24.26,0,0,1-30.33,0,46.62,46.62,0,0,1-12.3-14.3,88.79,88.79,0,0,1-8.48-21,103.07,103.07,0,0,1-3.29-26.1V481.16a110.22,110.22,0,0,1,3.39-25.6,80.66,80.66,0,0,1,8.48-21,45.89,45.89,0,0,1,12.41-14,24.47,24.47,0,0,1,29.91,0,45.88,45.88,0,0,1,12.41,14,80.66,80.66,0,0,1,8.48,21,110.22,110.22,0,0,1,3.39,25.6v55.6h-52.71v71.1a32.11,32.11,0,0,0,4.14,16.7c2.76,4.7,5.94,7,9.76,7s7-2.3,9.76-7a32.91,32.91,0,0,0,4.14-16.7v-34.4ZM1494.23,500h27.68v-20.3a32.11,32.11,0,0,0-4.14-16.7c-2.76-4.7-5.94-7-9.76-7s-7,2.3-9.76,7a32.91,32.91,0,0,0-4.14,16.7Z" transform="translate(-46.06 -11.69)"/><path class="d" d="M1623.19,461.26a9.62,9.62,0,0,0-3.39-.5c-3.39,0-6.79,1.7-10.29,5.1a22.56,22.56,0,0,0-6.58,12.8v197.8h-27.68V421.66h27.68V428c6.36-5.5,13.15-8.2,20.36-8.2Z" transform="translate(-46.06 -11.69)"/><path class="d" d="M1699.3,432.76h20.62v40.6H1699.3v202.7h-27.81V473.36h-20.62v-40.6h20.62v-64.3h.33a111.43,111.43,0,0,1,4-26.1,86.54,86.54,0,0,1,9.16-21.3,46.31,46.31,0,0,1,13.2-14.3,28.71,28.71,0,0,1,15.92-5.1,29.13,29.13,0,0,1,2.94.2c1,.2,2,.4,2.94.7v44a14.22,14.22,0,0,0-2.73-1.5,8.74,8.74,0,0,0-2.73-.5q-6.05,0-10.47,7.5a34.81,34.81,0,0,0-4.36,17.7v3.4h-.33Z" transform="translate(-46.06 -11.69)"/><path class="d" d="M1759.94,381c-4.47,0-8.07-2.5-11-7.5s-4.36-11-4.36-18.1,1.31-13.1,4-18.1,6.33-7.5,10.69-7.5,8,2.5,11.13,7.5,4.8,11,4.8,18.1-1.53,13.1-4.47,18.1S1764.2,381,1759.94,381Zm-14.18,40.2h28.14l-.55,255.4h-28.14Z" transform="translate(-46.06 -11.69)"/><path class="d" d="M1870.77,571.06c2.07,5.5,4,10.4,5.67,14.8s3.05,8.4,4,12.1,1.85,7.2,2.51,10.9a68.46,68.46,0,0,1,.87,11.6,66.92,66.92,0,0,1-3.05,19.6,69.43,69.43,0,0,1-8.29,17.9,51.77,51.77,0,0,1-12.43,13.3,25.61,25.61,0,0,1-15.71,5.3,28.89,28.89,0,0,1-15.71-4.6c-4.8-3.1-9.05-7.9-12.65-14.5s-6.33-14.9-8.4-24.9a187.59,187.59,0,0,1-3.05-35.8h25.52v6.8c0,3.5.22,7.3.55,11.1a49.68,49.68,0,0,0,2.18,10.6,23.35,23.35,0,0,0,4.36,8,8.89,8.89,0,0,0,7.09,3.1c3.82,0,6.87-2.1,8.94-6.3a25.79,25.79,0,0,0,3.16-11.6,34.11,34.11,0,0,0-2.18-10.9,79.82,79.82,0,0,0-4.47-10.9l-33.92-76.4a123.61,123.61,0,0,1-8.4-23.7,108.89,108.89,0,0,1-2.94-25.1,66.92,66.92,0,0,1,3.05-19.6,76.37,76.37,0,0,1,8.29-18.1,46.9,46.9,0,0,1,12.43-13.3,26.32,26.32,0,0,1,15.71-5.1,28,28,0,0,1,15.71,4.8c4.8,3.2,9.05,8.1,12.65,14.5s6.33,14.7,8.4,24.7a187.59,187.59,0,0,1,3.05,35.8h-25.52v-7.3c0-3.5-.22-7.2-.55-11.1a49.17,49.17,0,0,0-2.18-10.4,22.06,22.06,0,0,0-4.36-7.7,8.89,8.89,0,0,0-7.09-3.1c-3.82,0-6.87,2-8.94,6a24.11,24.11,0,0,0-3.16,11.9,34.79,34.79,0,0,0,2.18,10.4,86.18,86.18,0,0,0,4.47,11.4Z" transform="translate(-46.06 -11.69)"/><path class="d" d="M1997.84,442.86a117.72,117.72,0,0,1,7,15.5,153.18,153.18,0,0,1,4.8,18.1,122.39,122.39,0,0,1,2.18,24.4V676h-28.69V498a29.57,29.57,0,0,0-1.75-10.2,32.26,32.26,0,0,0-4.47-8.5,22.37,22.37,0,0,0-6.11-5.6,12.68,12.68,0,0,0-6.54-1.9,17.29,17.29,0,0,0-7.09,1.9,25.61,25.61,0,0,0-7.31,5.6,34.88,34.88,0,0,0-5.67,8.5,23.71,23.71,0,0,0-2.29,10.2V676h-28.14V302.16h27.81v134.5a43.29,43.29,0,0,1,12.65-9.7,31.2,31.2,0,0,1,13.74-3.4,28.57,28.57,0,0,1,16.36,5.1A46,46,0,0,1,1997.84,442.86Z" transform="translate(-46.06 -11.69)"/><g class="f"><path d="M1105,772.86a46.42,46.42,0,0,0,19.7,4.7c10.9,0,16-4.3,16-9.6,0-5.6-4.2-8.7-15.3-11.9-14.8-4.1-21.7-10.5-21.7-18.3,0-10.4,10.7-18.9,28.4-18.9a50.7,50.7,0,0,1,20.2,4l-3.7,8.5a38.65,38.65,0,0,0-16.8-3.7c-8.8,0-13.8,4-13.8,8.8,0,5.3,4.9,7.7,15.6,10.9,14.3,4.3,21.6,9.9,21.6,19.5,0,11.3-11.2,19.3-30.7,19.3-9,0-17.3-1.7-23.1-4.4Z" transform="translate(-46.06 -11.69)"/><path d="M1180.2,720.26l10.9,32.8c2.4,7.2,4.6,13.9,6.1,20.5h.5c1.9-6.5,4.6-13.5,7.3-20.4l13.4-33H1231l12.7,32.3a214.24,214.24,0,0,1,7.3,21.1h.5a171.06,171.06,0,0,1,6.3-20.9l11.7-32.4h14.8l-26.5,64.6h-13.6l-12.6-30.8a171,171,0,0,1-7.3-21.2h-.3a152.67,152.67,0,0,1-7.5,21.3l-13.2,30.7h-13.6l-24.8-64.6h15.3Z" transform="translate(-46.06 -11.69)"/><path d="M1315.9,702.16c.2,4-3.6,7.2-9.5,7.2-5.3,0-9-3.2-9-7.2s3.9-7.3,9.3-7.3C1312.3,694.76,1315.9,698,1315.9,702.16Zm-16.6,82.7v-64.6h14.9v64.6Z" transform="translate(-46.06 -11.69)"/><path d="M1339,737.76c0-6.7-.2-12.1-.7-17.5h13.1l.7,10.4h.5c4.6-6.1,12.2-11.9,25.8-11.9,11.2,0,19.7,5.3,23.3,12.9h.3a29.25,29.25,0,0,1,9.2-8.4c4.9-2.9,10.4-4.5,18.2-4.5,10.9,0,27,5.6,27,28v38h-14.6v-36.6c0-12.4-5.8-19.9-17.8-19.9-8.5,0-15.1,4.9-17.7,10.7a15.11,15.11,0,0,0-1.2,5.9v39.9h-14.6v-38.6c0-10.3-5.8-17.7-17.2-17.7-9.3,0-16.1,5.9-18.5,11.7a13.54,13.54,0,0,0-1.2,5.7v39H1339Z" transform="translate(-46.06 -11.69)"/><path d="M1516.6,690.06h14.9v94.7h-14.9Z" transform="translate(-46.06 -11.69)"/><path d="M1565,754.66c.3,15.9,13.2,22.4,28.2,22.4,10.7,0,17.2-1.5,22.8-3.3l2.5,8.4c-5.3,1.9-14.3,4-27.3,4-25.3,0-40.4-13.1-40.4-32.6s14.6-34.8,38.5-34.8c26.8,0,34,18.5,34,30.4a32.25,32.25,0,0,1-.5,5.5H1565Zm43.8-8.4c.2-7.5-3.9-19.1-20.7-19.1-15.1,0-21.7,10.9-22.9,19.1Z" transform="translate(-46.06 -11.69)"/><path d="M1639.7,772.86a46.42,46.42,0,0,0,19.7,4.7c10.9,0,16-4.3,16-9.6,0-5.6-4.2-8.7-15.3-11.9-14.8-4.1-21.7-10.5-21.7-18.3,0-10.4,10.7-18.9,28.4-18.9a50.7,50.7,0,0,1,20.2,4l-3.7,8.5a38.65,38.65,0,0,0-16.8-3.7c-8.8,0-13.8,4-13.8,8.8,0,5.3,4.9,7.7,15.6,10.9,14.3,4.3,21.6,9.9,21.6,19.5,0,11.3-11.2,19.3-30.7,19.3-9,0-17.3-1.7-23.1-4.4Z" transform="translate(-46.06 -11.69)"/><path d="M1707,772.86a46.42,46.42,0,0,0,19.7,4.7c10.9,0,16-4.3,16-9.6,0-5.6-4.2-8.7-15.3-11.9-14.8-4.1-21.7-10.5-21.7-18.3,0-10.4,10.7-18.9,28.4-18.9a50.7,50.7,0,0,1,20.2,4l-3.7,8.5a38.65,38.65,0,0,0-16.8-3.7c-8.8,0-13.8,4-13.8,8.8,0,5.3,4.9,7.7,15.6,10.9,14.3,4.3,21.6,9.9,21.6,19.5,0,11.3-11.2,19.3-30.7,19.3-9,0-17.3-1.7-23.1-4.4Z" transform="translate(-46.06 -11.69)"/><path d="M1850.7,752.06c0,23.9-21.1,34.3-40.9,34.3-22.2,0-39.4-12.8-39.4-33.2,0-21.6,18-34.3,40.8-34.3C1834.7,718.76,1850.7,732.26,1850.7,752.06Zm-65.3.6c0,14.1,10.4,24.8,25,24.8,14.3,0,25-10.5,25-25.1,0-10.9-7-24.8-24.6-24.8S1785.4,740.36,1785.4,752.66Z" transform="translate(-46.06 -11.69)"/><path d="M1869.5,737.76c0-6.7-.2-12.1-.7-17.5H1882l.8,10.7h.3c4.1-6.1,13.6-12.1,27.2-12.1,11.4,0,29,5.3,29,27.5V785h-14.9v-37.2c0-10.4-4.9-19.1-19-19.1-9.8,0-17.5,5.5-20,12a13.5,13.5,0,0,0-1,5.5V785h-14.9Z" transform="translate(-46.06 -11.69)"/><path d="M1961.7,772.86a46.42,46.42,0,0,0,19.7,4.7c10.9,0,16-4.3,16-9.6,0-5.6-4.2-8.7-15.3-11.9-14.8-4.1-21.7-10.5-21.7-18.3,0-10.4,10.7-18.9,28.4-18.9a50.7,50.7,0,0,1,20.2,4l-3.7,8.5a38.65,38.65,0,0,0-16.8-3.7c-8.8,0-13.8,4-13.8,8.8,0,5.3,4.9,7.7,15.6,10.9,14.3,4.3,21.6,9.9,21.6,19.5,0,11.3-11.2,19.3-30.7,19.3-9,0-17.3-1.7-23.1-4.4Z" transform="translate(-46.06 -11.69)"/></g></svg>